<?xml version="1.0" encoding="UTF-8"?>
<svg width="512" height="512" viewBox="0 0 512 512" fill="none" xmlns="http://www.w3.org/2000/svg">
  <!-- خلفية دائرية متدرجة -->
  <circle cx="256" cy="256" r="256" fill="url(#gradient)"/>
  
  <!-- كتاب مفتوح -->
  <path d="M156 156C156 144.954 164.954 136 176 136H336C347.046 136 356 144.954 356 156V356C356 367.046 347.046 376 336 376H176C164.954 376 156 367.046 156 356V156Z" fill="white"/>
  
  <!-- خطوط الكتاب -->
  <path d="M196 196H316" stroke="#9C27B0" stroke-width="16" stroke-linecap="round"/>
  <path d="M196 236H316" stroke="#9C27B0" stroke-width="16" stroke-linecap="round"/>
  <path d="M196 276H266" stroke="#9C27B0" stroke-width="16" stroke-linecap="round"/>
  
  <!-- نجمة إسلامية -->
  <path d="M256 96L276 136L316 146L286 176L296 216L256 196L216 216L226 176L196 146L236 136L256 96Z" fill="#BA68C8"/>
  
  <!-- تدرج لوني للخلفية -->
  <defs>
    <linearGradient id="gradient" x1="0" y1="0" x2="512" y2="512" gradientUnits="userSpaceOnUse">
      <stop offset="0%" style="stop-color:#9C27B0"/>
      <stop offset="100%" style="stop-color:#BA68C8"/>
    </linearGradient>
  </defs>
</svg>
